<?xml version="1.0" standalone="no"?>
<!DOCTYPE svg PUBLIC "-//W3C//DTD SVG 1.1//EN" "http://www.w3.org/Graphics/SVG/1.1/DTD/svg11.dtd" >
<svg xmlns="http://www.w3.org/2000/svg">
<metadata>Generated by IcoMoon</metadata>
<defs>
<font id="icomoon" horiz-adv-x="1024">
<font-face units-per-em="1024" ascent="960" descent="-64" />
<missing-glyph horiz-adv-x="1024" />
<glyph unicode="&#x20;" horiz-adv-x="512" d="" />
<glyph unicode="&#xe900;" glyph-name="execution" d="M443.733 920.557c-169.15-22.756-335.265-169.908-386.086-342.85-16.687-56.13-16.687-203.283 0-259.413 30.341-103.159 109.227-210.11 198.732-270.033 63.716-42.477 150.187-70.542 232.107-75.093 273.825-17.446 505.173 197.973 505.173 471.040 0 77.369-12.895 137.292-44.753 206.317-47.787 101.641-116.053 171.425-216.936 222.246-88.747 44.753-187.354 61.44-288.237 47.787zM565.096 630.044c62.199-12.895 128.19-68.267 150.945-127.431 16.687-43.236 15.17-118.329-2.276-157.772-37.167-81.161-104.676-124.397-197.215-124.397-67.508 0-109.985 17.446-145.636 59.164l-22.756 28.065 28.065 25.031 28.824 24.273 28.824-28.065c25.79-25.031 33.375-28.065 75.852-31.099 56.889-3.034 91.781 12.136 118.329 50.821 22.756 34.892 27.307 54.613 20.48 96.332-6.827 46.27-48.545 92.539-88.747 99.366l-28.824 4.551v-31.858c0-16.687-2.276-31.099-6.068-31.099-3.034 0-32.616 27.307-65.233 59.923l-59.164 59.923 21.239 13.653c12.136 7.585 42.477 28.824 67.508 47.028l45.511 33.375 3.793-32.616c3.034-28.824 6.068-33.375 26.548-37.167z" />
<glyph unicode="&#xe901;" glyph-name="create" d="M672 873.6c0-3.2-8-9.6-17.6-13.6-10.4-4.8-31.2-29.6-47.2-56l-28.8-48-251.2-4c-260.8-4-276.8-6.4-295.2-40-4.8-9.6-8-129.6-8-328 0-281.6 1.6-316 13.6-336.8l13.6-23.2h464c431.2 0 464 0.8 473.6 14.4 8.8 10.4 10.4 92.8 11.2 410.4v396l-20 17.6c-19.2 16.8-28 17.6-164 17.6-79.2 0-144-2.4-144-6.4zM928 448v-344h-824v560h222.4c121.6 0 235.2 4 252.8 7.2 32.8 8 71.2 40 89.6 74.4 23.2 44.8 28 46.4 148 46.4h111.2v-344zM487.2 570.4c-7.2-8.8-11.2-34.4-11.2-79.2v-67.2h-69.6c-64 0-71.2-1.6-81.6-18.4-16-23.2-8.8-49.6 16-60.8 11.2-4.8 45.6-8.8 77.6-8.8h57.6l-2.4-36.8c-5.6-63.2 4-104 28-114.4 16.8-7.2 24-7.2 39.2 3.2 17.6 11.2 19.2 17.6 19.2 80v68h58.4c65.6 0 96.8 12 100 39.2 5.6 36-18.4 48.8-92 48.8h-66.4v66.4c0 55.2-2.4 69.6-14.4 80-19.2 17.6-44.8 17.6-58.4 0z" />
<glyph unicode="&#xe902;" glyph-name="end" d="M512.8 953.6c-448.8-1.6-484-2.4-493.6-16-8.8-11.2-10.4-108-11.2-494.4 0-456 0.8-481.6 14.4-493.6s59.2-13.6 495.2-13.6c454.4 0 480.8 0.8 492.8 14.4s13.6 59.2 13.6 495.2c0 446.4-0.8 481.6-13.6 495.2-13.6 14.4-35.2 15.2-497.6 12.8z" />
<glyph unicode="&#xe903;" glyph-name="feedback" d="M464 888c0-4-12-8-27.2-8s-29.6-3.2-32-7.2c-3.2-4-19.2-9.6-36.8-12.8s-32-8.8-32-12.8c0-4-7.2-7.2-16-7.2s-16-3.2-16-8c0-4-4-8-8-8-8 0-17.6-6.4-44-29.6-5.6-5.6-13.6-10.4-16-10.4-8.8 0-59.2-57.6-64.8-73.6-2.4-8-8-14.4-12-14.4s-7.2-4-7.2-8c0-4.8-7.2-16-16-25.6s-16-24-16-32c0-8-3.2-14.4-7.2-14.4s-10.4-20-12.8-44c-3.2-24-8.8-44-12.8-44s-7.2-37.6-7.2-84c0-46.4 3.2-84 7.2-84s9.6-20 12.8-44c2.4-24 8.8-44 12.8-44s7.2-7.2 7.2-16c0-8.8 4-16 8-16 4.8 0 8-5.6 8-12s3.2-12 7.2-12c4 0 10.4-7.2 12.8-16.8 7.2-20.8 114.4-127.2 128.8-127.2 6.4 0 11.2-3.2 11.2-8 0-4 5.6-8 12-8s12-3.2 12-8c0-4 12.8-9.6 28-12.8 15.2-2.4 30.4-8 32.8-12s11.2-7.2 20-7.2c8 0 15.2-3.2 15.2-8s41.6-8 108-8c66.4 0 108 3.2 108 8s5.6 8 12.8 8c17.6 0 94.4 26.4 97.6 34.4 1.6 3.2 6.4 5.6 10.4 5.6 4.8 0 16.8 8.8 28 20s24 20 29.6 20c5.6 0 20.8 13.6 33.6 28.8 13.6 16 36 41.6 50.4 56 14.4 15.2 24 31.2 21.6 35.2-2.4 4.8-0.8 8 3.2 8 4.8 0 8.8 7.2 8.8 16s4 16 8 16c4.8 0 8 6.4 8 14.4s4.8 19.2 10.4 24.8c12.8 12.8 13.6 294.4 0.8 303.2-9.6 6.4-35.2 60-35.2 72.8 0 4.8-2.4 8.8-6.4 8.8-3.2 0-10.4 10.4-16 24-5.6 12.8-17.6 25.6-26.4 28-8 3.2-15.2 7.2-15.2 10.4 0 12-44.8 55.2-62.4 60.8-9.6 3.2-17.6 9.6-17.6 13.6s-5.6 7.2-12 7.2c-6.4 0-12 4-12 8 0 4.8-5.6 8-12 8s-12 3.2-12 7.2c0 4-16 9.6-36 12-19.2 3.2-37.6 8.8-40 13.6-3.2 4-17.6 7.2-32.8 7.2s-27.2 4-27.2 8c0 4.8-26.4 8-64 8s-64-3.2-64-8zM604 720c2.4-4 12-8 20.8-8 8 0 15.2-3.2 15.2-8 0-4 7.2-8 16-8s16-3.2 16-8c0-4 4.8-8 10.4-8 9.6 0 44-31.2 80-72 7.2-8.8 13.6-20.8 13.6-27.2s4-12.8 8.8-14.4c4.8-1.6 11.2-21.6 13.6-44.8 1.6-23.2 6.4-41.6 10.4-41.6 9.6 0 8.8-69.6-0.8-76-4-2.4-8-13.6-8-24.8 0-22.4-24.8-83.2-33.6-83.2-4 0-6.4-5.6-6.4-12 0-15.2-52.8-68-68.8-68-6.4 0-9.6-3.2-7.2-8 2.4-4-0.8-8-7.2-8-7.2 0-12.8-3.2-12.8-8 0-4-6.4-8-14.4-8s-19.2-4.8-24-9.6c-15.2-15.2-166.4-13.6-199.2 1.6-14.4 6.4-26.4 14.4-26.4 17.6 0 4-5.6 6.4-12 6.4s-12 4-12 8c0 4.8-5.6 8-12 8-14.4 0-48.8 34.4-56 55.2-2.4 8-9.6 17.6-16 20s-12 12-12 20.8c0 8.8-3.2 16-8 16-4 0-8 8.8-8 20s-3.2 20-8 20c-10.4 0-10.4 131.2-0.8 150.4 12 21.6 32.8 71.2 32.8 76.8 0 4.8 8.8 15.2 54.4 64.8 10.4 11.2 23.2 20 29.6 20s12 4 12 8c0 4.8 7.2 8 16 8s16 4 16 8c0 4.8 8.8 8 20 8s20 4 20 8c0 4.8 28.8 8 71.2 8 40 0 74.4-3.2 76.8-8zM448 520.8v-152.8h272v88h-188v212l-84 4.8v-152z" />
<glyph unicode="&#xe904;" glyph-name="keep" d="M59.2 928.8c-8.8-4-22.4-16.8-29.6-28-12-18.4-13.6-61.6-13.6-460 0-316.8 2.4-445.6 9.6-460.8l8.8-20h482.4c432 0 481.6 1.6 486.4 12.8 2.4 7.2 4.8 160 4.8 340 0 287.2-1.6 331.2-12.8 353.6-16 31.2-214.4 233.6-247.2 252-21.6 12-60.8 13.6-348 15.2-178.4 0.8-331.2-1.6-340.8-4.8zM184 699.2c3.2-128.8 5.6-147.2 19.2-162.4 14.4-16 22.4-16.8 227.2-16.8 273.6 0 249.6-16.8 249.6 177.6 0 142.4 0 142.4 18.4 142.4 12 0 49.6-32 120-102.4l101.6-102.4v-293.6c0-161.6 0.8-296 2.4-299.2 0.8-4-15.2-7.2-36-8.8l-38.4-2.4v136.8c0 148.8-6.4 177.6-42.4 187.2-33.6 8-560.8 6.4-583.2-2.4-12-4.8-25.6-15.2-29.6-24-5.6-9.6-8.8-72.8-8.8-156v-140.8h-80v403.2c0 315.2 2.4 404 10.4 408 4.8 2.4 22.4 3.2 37.6 2.4l28-1.6 4-144.8zM590.4 838.4c11.2-11.2 13.6-204 3.2-220.8-4.8-7.2-27.2-9.6-82.4-8l-75.2 2.4-2.4 107.2c-0.8 59.2 0 112.8 1.6 118.4 5.6 13.6 141.6 14.4 155.2 0.8zM760.8 156v-120h-497.6v118.4c0 64.8 0.8 119.2 0.8 121.6s112 3.2 248.8 2.4l248-2.4v-120z" />
<glyph unicode="&#xe905;" glyph-name="issued" d="M584 756v-204h-96c-52.8 0-96-1.6-96-3.2 0-6.4 314.4-316.8 320-316.8 8.8 0 312 304 312 312.8 0 4-41.6 7.2-92 7.2h-92v408h-256v-204zM13.6 865.6c-12-13.6-13.6-56.8-13.6-454.4 0-384.8 1.6-441.6 12.8-457.6l12-17.6h405.6c384.8 0.8 406.4 1.6 424 15.2 17.6 15.2 17.6 19.2 17.6 184 0 92.8-3.2 168.8-6.4 168.8-4 0-40-32.8-80-72.8l-72.8-72.8-221.6 220.8-220.8 220.8h265.6v280h-254.4c-236.8 0-256-0.8-268-14.4zM263.2 380.8c8.8-15.2 8-21.6 0-36-9.6-15.2-18.4-16.8-83.2-16.8s-73.6 1.6-83.2 16.8c-8 14.4-8.8 20.8 0 36 9.6 18.4 14.4 19.2 83.2 19.2s73.6-0.8 83.2-19.2zM456 232c21.6-21.6 20-39.2-4.8-48-27.2-10.4-328-10.4-348 0-18.4 10.4-19.2 22.4-2.4 46.4 12 17.6 16 17.6 176 17.6 152.8 0 164-0.8 179.2-16z" />
<glyph unicode="&#xe906;" glyph-name="normalComp" d="M428 946.4c-30.4-7.2-62.4-12.8-69.6-12.8-8-0.8-14.4-3.2-14.4-5.6s-13.6-9.6-29.6-15.2c-47.2-16.8-144-87.2-182.4-132-91.2-108-144-271.2-124.8-386.4 18.4-105.6 55.2-192 112-264.8 36.8-46.4 109.6-107.2 152.8-127.2 15.2-7.2 29.6-16 32-18.4 2.4-3.2 20.8-9.6 42.4-16 20.8-5.6 37.6-12 37.6-15.2 0-2.4 12-5.6 26.4-6.4 13.6-0.8 49.6-4 78.4-7.2 81.6-8 217.6 30.4 307.2 87.2 30.4 19.2 94.4 82.4 125.6 124 40 54.4 65.6 110.4 86.4 194.4 20 82.4 20 124-0.8 208-53.6 215.2-200.8 353.6-421.6 396-69.6 13.6-84 12.8-157.6-2.4zM568 863.2c0-5.6 8.8-7.2 20.8-4.8 29.6 5.6 60.8-5.6 156.8-56 36-19.2 108-96.8 136.8-148.8 69.6-124.8 70.4-280.8 3.2-408.8-30.4-57.6-102.4-132-159.2-164-45.6-26.4-122.4-52-134.4-44.8-4 2.4-8.8 0.8-12-4-2.4-4-33.6-8-68-8s-65.6 4-68 8c-3.2 4.8-8 6.4-12 4-12-7.2-81.6 16-130.4 44-56.8 32-125.6 100-156 154.4s-52 120.8-45.6 141.6c3.2 9.6 1.6 16-4.8 16-16 0-3.2 139.2 17.6 196 32.8 90.4 107.2 183.2 173.6 216.8 16 8.8 31.2 17.6 33.6 20 8.8 11.2 106.4 40.8 120.8 36.8 8-2.4 15.2-0.8 15.2 3.2s25.6 7.2 56 7.2c36 0 56-3.2 56-8.8zM606.4 484.8l-134.4-136-80.8 81.6c-45.6 44.8-84 81.6-87.2 81.6-8 0-48-44-48-52 0-10.4 209.6-220 219.2-220 10.4 0 332.8 321.6 332.8 331.2 0 13.6-42.4 52.8-55.2 51.2-7.2 0-72.8-62.4-146.4-137.6z" />
<glyph unicode="&#xe907;" glyph-name="projectKeep" d="M309.6 904.8c-6.4-7.2-39.2-84.8-72.8-172.8-34.4-88-64.8-167.2-68.8-176-18.4-44.8-124-316-144-372-17.6-49.6-21.6-68.8-16-88 10.4-35.2 36.8-68.8 76-96l35.2-24h640.8l32 20c41.6 26.4 43.2 30.4 91.2 188 46.4 154.4 103.2 343.2 117.6 387.2 21.6 68 20 109.6-4.8 132.8-11.2 10.4-20.8 17.6-22.4 15.2-1.6-1.6-8.8-23.2-16-47.2-6.4-24-19.2-67.2-28-96s-40-129.6-68-224c-80-263.2-83.2-272.8-99.2-284-12-9.6-73.6-11.2-328.8-12-308 0-316 0-339.2 16.8-15.2 11.2-22.4 22.4-20.8 34.4 2.4 16.8 3.2 16.8 302.4 20.8 223.2 3.2 304.8 6.4 317.6 14.4 21.6 12 42.4 52 61.6 117.6 18.4 60.8 76 249.6 84.8 276 3.2 11.2 14.4 47.2 24 80s24.8 81.6 33.6 108c23.2 71.2 27.2 127.2 12 151.2-28.8 44-42.4 45.6-327.2 44-230.4-0.8-263.2-2.4-272.8-14.4zM772.8 726.4c-9.6-47.2-4.8-46.4-221.6-46.4-132 0-199.2 3.2-199.2 8s5.6 20.8 11.2 36l12 28h403.2l-5.6-25.6zM724 592c3.2-4.8 0.8-20.8-4-36l-8.8-27.2-190.4-2.4c-104.8-1.6-196-1.6-203.2 0-16.8 3.2-16.8 19.2-1.6 49.6l12.8 24h195.2c124 0 196.8-3.2 200-8z" />
<glyph unicode="&#xe908;" glyph-name="monitoring" d="M362.4 858.4c-10.4-1.6-18.4-7.2-18.4-11.2s-7.2-7.2-16-7.2c-8.8 0-16-2.4-16-6.4 0-3.2-16-12.8-36-21.6s-36-18.4-36-21.6c0-4-4-6.4-8.8-6.4-14.4 0-111.2-104.8-111.2-120 0-4.8-3.2-7.2-7.2-4-4.8 2.4-10.4-8-13.6-24-2.4-15.2-8-28-11.2-28-31.2 0-45.6-268.8-18.4-351.2 7.2-22.4 16-40.8 20-40.8 3.2 0 6.4-7.2 6.4-16s4-16 8.8-16c4 0 5.6-3.2 3.2-8-4.8-8 4-19.2 69.6-88 45.6-47.2 57.6-56 104.8-77.6 16-8 29.6-16.8 29.6-20 0-4 7.2-6.4 15.2-6.4 8.8 0 16.8-4.8 18.4-9.6 5.6-15.2 311.2-15.2 316.8 0 1.6 4.8 9.6 9.6 18.4 9.6 8 0 15.2 4 15.2 8 0 4.8 7.2 8 16 8s16 3.2 16 7.2c0 4 6.4 8.8 14.4 12 24 8 44.8 24 85.6 66.4 58.4 59.2 76 80.8 76 90.4 0 4 2.4 8 6.4 8 3.2 0 12.8 23.2 21.6 52 8 28.8 18.4 52 21.6 52s6.4 56 6.4 124c0 68-3.2 124-6.4 124s-13.6 23.2-21.6 52c-8.8 28.8-18.4 52-21.6 52-4 0-6.4 4.8-6.4 11.2s-6.4 16.8-14.4 22.4c-8.8 5.6-20 19.2-25.6 29.6-5.6 11.2-20.8 28.8-33.6 40-13.6 10.4-28.8 24.8-34.4 30.4-6.4 5.6-14.4 10.4-19.2 10.4s-8.8 3.2-8.8 8c0 4-8.8 9.6-20 12.8-11.2 2.4-20 8-20 12s-7.2 7.2-16 7.2c-8.8 0-16 4-16 8 0 4.8-7.2 8-15.2 8-8.8 0-16.8 4.8-18.4 10.4-3.2 7.2-39.2 9.6-143.2 11.2-76.8 0-147.2-0.8-156.8-3.2zM614.4 712.8c6.4-4 9.6-13.6 8-21.6-1.6-12-11.2-16-44.8-17.6l-41.6-2.4v-104.8c0-101.6 0.8-104 16.8-100 12 3.2 18.4-0.8 24-16 4.8-13.6 12-19.2 21.6-16 88 24.8 141.6 36.8 146.4 32 11.2-12.8 48.8-164 42.4-169.6s-310.4-96-336-99.2c-9.6-1.6-163.2 142.4-163.2 152.8 0 3.2 36.8 15.2 82.4 26.4 76 19.2 81.6 21.6 84 41.6 1.6 15.2 8.8 23.2 22.4 26.4 19.2 4.8 19.2 4.8 19.2 116v111.2h-40c-36.8 0-40 1.6-40 20 0 19.2 0 19.2 90.4 22.4 48.8 0.8 91.2 3.2 93.6 4s8.8-1.6 14.4-5.6zM263.2 295.2c18.4-6.4 28-6.4 36 0 8.8 7.2 19.2 1.6 48-27.2 20-19.2 36.8-39.2 36.8-43.2 0-9.6-51.2-20-68-13.6-8 2.4-12-0.8-12-10.4 0-15.2-28.8-46.4-36-39.2-2.4 2.4-11.2 28-19.2 56.8-8.8 28.8-17.6 59.2-20.8 68.8-5.6 19.2-0.8 20 35.2 8z" />
<glyph unicode="&#xe909;" glyph-name="flightlog" d="M892 928c-17.6-16.8-42.4-44-56-59.2-27.2-32.8-52-36.8-108.8-16.8-18.4 7.2-48 13.6-64.8 15.2s-32.8 4.8-36 8c-2.4 2.4-20.8 4.8-40 4.8-18.4 0-34.4 4-34.4 8 0 14.4-44 8.8-56-8-6.4-8.8-16-16-21.6-16-13.6 0-12.8-30.4 0.8-44.8 6.4-6.4 17.6-11.2 24-11.2 7.2 0 12.8-3.2 12.8-8s-90.4-8-256-8h-256v-856h904v455.2l24.8 19.2 24 19.2-10.4 64.8c-5.6 36-12.8 65.6-16 65.6s-6.4 14.4-6.4 31.2c0 17.6-3.2 34.4-8 36.8-4 2.4-8 19.2-8 36.8 0 16.8-2.4 31.2-5.6 31.2-4 0-6.4 12-6.4 25.6 0 21.6 10.4 36.8 62.4 88.8 52.8 53.6 61.6 67.2 61.6 90.4 0 39.2-20.8 59.2-60 59.2-26.4 0-37.6-5.6-64-32zM648 675.2c0-2.4-14.4-18.4-31.2-35.2-17.6-17.6-33.6-36.8-36-41.6-4-8-5.6-8-9.6 0-7.2 14.4-64 12-83.2-4-12.8-11.2-36.8-15.2-114.4-18.4l-97.6-4-2.4-53.6-2.4-54.4h160.8c154.4 0 160-0.8 160-16 0-8.8 4-16 8.8-16 4 0 5.6-3.2 3.2-8-3.2-4.8-68-8-168.8-8h-163.2v-45.6c0-25.6 3.2-51.2 6.4-56.8 5.6-7.2 59.2-9.6 242.4-8l235.2 2.4 2.4 54.4 2.4 53.6h-44.8c-43.2 0-44 0-44 24s0.8 24 44 24h44.8l-2.4 54.4c-2.4 49.6-3.2 53.6-20 52-17.6-2.4-17.6-1.6 3.2 20.8 23.2 24.8 42.4 24.8 42.4 0 0-8 2.4-15.2 6.4-15.2 3.2 0 5.6-118.4 5.6-264v-264h-692v632l272-0.8c149.6 0 272-2.4 272-4zM136.8 564.8c-5.6-6.4-8.8-28.8-7.2-54.4l2.4-42.4 116.8-4.8-4.8 108.8-48.8 2.4c-35.2 1.6-51.2-0.8-58.4-9.6zM128 373.6c0-61.6 9.6-71.2 68-68l48 2.4 2.4 54.4 2.4 53.6h-120.8v-42.4zM141.6 260.8c-11.2-8.8-13.6-20-12-54.4l2.4-42.4 116-4.8v47.2c0 25.6-4 50.4-9.6 56-12.8 12.8-79.2 12-96.8-1.6zM289.6 262.4c-5.6-5.6-9.6-30.4-9.6-56v-46.4h472v101.6l-89.6 4.8c-154.4 9.6-362.4 6.4-372.8-4z" />
<glyph unicode="&#xe90a;" glyph-name="maintenanceplan" d="M21.6 936l-21.6-23.2v-930.4l46.4-46.4h931.2l46.4 46.4v931.2l-46.4 46.4-933.6-0.8-22.4-23.2zM915.2 868c2.4-6.4 9.6-12 16.8-12 10.4 0 12-46.4 12-404 0-353.6-1.6-404-12-404-6.4 0-12-7.2-12-16 0-16-5.6-16-408-16s-408 0-408 16c0 8.8-4 16-8.8 16-5.6 0-7.2 8-4 22.4 3.2 12 5.6 27.2 5.6 33.6-1.6 341.6 0 744.8 4 758.4l4.8 17.6h402.4c350.4 0 403.2-1.6 407.2-12zM475.2 824c-75.2-40.8-104.8-87.2-96-151.2l4.8-36-132-132.8c-145.6-146.4-150.4-155.2-108-196 12.8-12.8 24-27.2 24-32.8 0-15.2 21.6-19.2 41.6-8.8 10.4 5.6 75.2 66.4 144.8 136.8l126.4 127.2 126.4-3.2 48 48.8c51.2 52 64.8 84 51.2 125.6-12 35.2-33.6 32-78.4-13.6-24.8-25.6-46.4-40-58.4-40-23.2 0-73.6 48-73.6 70.4 0 10.4 18.4 35.2 44 60.8 34.4 33.6 41.6 44.8 33.6 51.2-14.4 12.8-72 8.8-98.4-6.4zM808 578.4c-6.4-2.4-14.4-8.8-17.6-13.6-4-6.4-10.4-5.6-22.4 1.6-18.4 11.2-33.6 6.4-27.2-8.8 1.6-5.6-6.4-20-19.2-32-16.8-16-22.4-28-19.2-41.6 2.4-15.2-4.8-28-33.6-56-32-30.4-42.4-36-69.6-36-45.6 0-66.4-14.4-171.2-118.4-112.8-111.2-112.8-112-38.4-187.2l52.8-54.4 224.8 1.6 224.8 2.4-220 4c-216 4-220 4-222.4 20.8-1.6 12.8 4 20 24 28 14.4 5.6 68.8 52.8 120 104.8 88.8 88.8 94.4 96 94.4 125.6 0 26.4 5.6 38.4 34.4 68 19.2 20.8 41.6 36.8 49.6 36.8 15.2 0 60 52.8 60 70.4 0 4 8.8 13.6 20 20.8 24 16 24.8 28 4 51.2-16.8 17.6-26.4 20-48 12z" />
<glyph unicode="&#xe90b;" glyph-name="airworthiness" d="M0 532v-428h460l15.2-32c20.8-42.4 56.8-80.8 105.6-111.2l40.8-24.8h118.4c117.6 0 118.4 0 157.6 24 50.4 31.2 71.2 52 102.4 102.4l24 39.2v125.6c0 111.2-1.6 128.8-16.8 158.4-8.8 17.6-23.2 40-32 48.8-8 9.6-15.2 19.2-15.2 23.2 0 3.2-5.6 6.4-12 6.4s-12 3.2-12 7.2c0 4-7.2 10.4-16 12.8-15.2 4.8-16 12-16 240.8v235.2h-904v-428zM508 848c2.4-4 0.8-8-4-8-12.8 0-72-60.8-65.6-68 3.2-3.2-8.8-4-25.6-1.6-17.6 3.2-34.4 8.8-36.8 14.4-4.8 6.4-7.2 6.4-11.2 0-3.2-4.8-10.4-6.4-15.2-3.2s-14.4 6.4-21.6 7.2c-28 2.4-80 22.4-80 30.4 0 4.8-4 3.2-8-3.2-7.2-10.4-8.8-10.4-16 0s-8.8 10.4-16 0c-4.8-8-8-8.8-8-1.6 0 4.8-7.2 9.6-15.2 9.6-8.8 0-17.6 4.8-19.2 10.4-3.2 7.2-6.4 6.4-12.8-2.4-8-10.4-9.6-10.4-16.8 0-6.4 10.4-8.8 9.6-19.2-4-12-15.2-12-15.2-12.8 6.4v21.6h199.2c124.8 0 201.6-3.2 204.8-8zM792.8 702.4c0-83.2-0.8-153.6-0.8-158.4s-36.8-8-93.6-8c-98.4-0.8-122.4-7.2-122.4-35.2 0-8-4.8-12.8-9.6-11.2-12 4-28.8 62.4-29.6 104-0.8 16-4 32-8.8 34.4-4 2.4-8 12-8 21.6 0 11.2 4 14.4 12.8 11.2 7.2-3.2 10.4-1.6 6.4 4-4.8 8 8 23.2 87.2 100.8 24 24 29.6 35.2 29.6 60v31.2l136.8-4.8v-149.6zM118.4 720c5.6-8.8 15.2-16 22.4-16 17.6 0 60.8-24.8 73.6-41.6 5.6-8 19.2-14.4 30.4-14.4 10.4 0 19.2-3.2 19.2-7.2s8-8.8 18.4-10.4c16-2.4 15.2-4.8-17.6-36-19.2-19.2-37.6-34.4-41.6-34.4s-7.2-4-7.2-8.8c0-4.8-4.8-13.6-11.2-20-8.8-8.8-12.8-8.8-15.2-0.8-3.2 7.2-6.4 6.4-12.8-2.4-5.6-8-8.8-8.8-8.8-1.6 0 4.8-7.2 9.6-16 9.6s-16 4-16 9.6c0 4.8-7.2 0.8-15.2-8.8-16-18.4-16-18.4-18.4 90.4-1.6 60-0.8 108.8 1.6 108.8s8.8-7.2 14.4-16zM417.6 478.4c7.2-14.4 17.6-36.8 23.2-50.4 6.4-12.8 14.4-26.4 19.2-29.6 4.8-4 4-6.4-1.6-6.4-6.4 0-10.4-10.4-10.4-24v-24h-152l-0.8 28c-0.8 15.2-1.6 32-2.4 36.8-1.6 15.2 94.4 109.6 104 102.4 4.8-4 14.4-18.4 20.8-32.8zM126.4 432c12 0 12-1.6 1.6-8-9.6-6.4-8.8-8 4.8-8 9.6 0 21.6-5.6 27.2-12s12-10.4 15.2-8.8c2.4 1.6 11.2-8.8 18.4-24l14.4-27.2h-36.8c-48.8 0-43.2-19.2 6.4-22.4 27.2-1.6 37.6-6.4 40.8-16.8 1.6-8 12.8-16 24-18.4 16.8-3.2 21.6 0 24.8 15.2 5.6 20-3.2 18.4 149.6 21.6 27.2 0.8 28.8-0.8 22.4-17.6-4-10.4-7.2-35.2-7.2-56v-37.6h-328l0.8 120c0 66.4 2.4 115.2 4.8 110.4 1.6-5.6 9.6-10.4 16.8-10.4zM808 424c0-4 6.4-8 15.2-8 8 0 19.2-5.6 24.8-12s14.4-12 19.2-12c5.6 0 16-12.8 23.2-28s16-28 20-28c10.4 0 27.2-68.8 26.4-109.6s-18.4-102.4-30.4-102.4c-3.2 0-8 8.8-8.8 20-1.6 11.2-6.4 23.2-10.4 28-4 4-7.2 15.2-7.2 25.6s-3.2 18.4-8 18.4c-4 0-8 8.8-8 19.2 0 11.2-3.2 21.6-7.2 24.8-4.8 2.4-10.4 20.8-13.6 40-2.4 20-8 36-12 36s-7.2 8.8-7.2 20c0 11.2-3.2 20-8 20-4 0-8 8.8-8 20 0 19.2-1.6 20-56 20h-55.2l-5.6-28c-2.4-15.2-8-30.4-12-32.8s-7.2-11.2-7.2-20c0-8-3.2-15.2-8-15.2-4 0-8-10.4-8-24 0-12.8-3.2-24-7.2-24s-9.6-17.6-12.8-40c-3.2-21.6-8.8-40-12.8-40s-7.2-7.2-7.2-16c0-8.8-3.2-16-8-16-4 0-8-9.6-8.8-21.6 0-12.8-3.2-28.8-6.4-36.8-10.4-26.4-50.4 68-51.2 121.6-1.6 49.6 14.4 96.8 31.2 96.8 6.4 0 11.2 7.2 11.2 16 0 22.4 16.8 56 28 56 5.6 0 14.4 5.6 20 12s18.4 12 29.6 12c11.2 0 16.8 3.2 14.4 8-3.2 4.8 20 8 63.2 8 40.8 0 68.8-3.2 68.8-8zM803.2 131.2c2.4-7.2 4.8-17.6 4.8-24.8 0-18.4 20.8-34.4 45.6-35.2 20 0 18.4-1.6-16.8-20-32.8-16-52-19.2-105.6-19.2-36 0-67.2 2.4-68.8 6.4-0.8 3.2-15.2 12-30.4 19.2l-28 13.6h41.6l41.6 0.8 5.6 36 4.8 36h50.4c38.4 0 51.2-3.2 55.2-12.8z" />
<glyph unicode="&#xe90c;" glyph-name="planestate" d="M12.8 947.2c-11.2-11.2-12.8-67.2-12.8-498.4 0-460.8 0.8-487.2 14.4-499.2s60-13.6 499.2-13.6c458.4 0 484.8 0.8 496.8 14.4s13.6 60 13.6 500c0 429.6-1.6 485.6-12.8 496.8s-67.2 12.8-499.2 12.8c-432 0-488-1.6-499.2-12.8zM748 723.2c0-15.2-2.4-27.2-5.6-27.2-4 0-6.4-4.8-6.4-10.4s-7.2-15.2-16-21.6c-8.8-6.4-16-17.6-16-25.6s-3.2-14.4-7.2-14.4c-7.2 0-19.2-30.4-17.6-42.4 0.8-3.2-6.4-13.6-15.2-23.2-16.8-18.4-21.6-46.4-8-46.4 4.8 0 8-7.2 8-16s3.2-16 8-16c4 0 5.6-5.6 3.2-12-3.2-6.4-0.8-12 4-12s8.8-7.2 8.8-15.2c0-8.8 7.2-18.4 16-20.8s16-12 16-20.8c0-8 4-15.2 8-15.2 4.8 0 8-7.2 8-16s4-16 8.8-16c4 0 5.6-4 3.2-8.8-3.2-4 1.6-14.4 11.2-22.4 8.8-8 14.4-16.8 11.2-19.2-2.4-3.2 1.6-7.2 8.8-10.4 7.2-2.4 12.8-12 12.8-20s3.2-15.2 8-15.2c4 0 5.6-5.6 3.2-12-3.2-7.2 0-12 5.6-12 9.6 0 9.6-1.6 0-7.2-5.6-4-8-11.2-5.6-16 3.2-4.8 1.6-8.8-2.4-8.8-4.8 0-8.8-7.2-8.8-15.2 0-8.8-4.8-16.8-9.6-19.2-11.2-3.2-94.4 76-94.4 90.4 0 4.8-21.6 29.6-48 55.2s-48 52.8-48 60c0 22.4-39.2 16-48-7.2-4-11.2-11.2-20-16-20-4 0-8-6.4-8-14.4 0-7.2-8.8-20.8-20-28.8s-20-21.6-20-29.6c0-8.8-3.2-15.2-8-15.2-4 0-8-7.2-8-16s4-16 8-16c4.8 0 8-8.8 8-20s2.4-20 6.4-20c3.2 0 5.6-8.8 5.6-20s-2.4-20-5.6-20c-4 0-6.4-7.2-6.4-16s-3.2-16-8-16c-4 0-8 6.4-8 14.4s-8 19.2-16.8 25.6c-9.6 6.4-25.6 20-36 30.4-10.4 9.6-28 17.6-39.2 17.6s-20 4-20 8c0 4.8-14.4 8-32 8h-32.8l20 20c11.2 11.2 27.2 20 36.8 20 8.8 0 16 4 16 8 0 4.8 12.8 8 28 8 19.2 0 28 4 28 12 0 6.4 4 12 8 12 4.8 0 8 7.2 8 16s4 16 8 16c4.8 0 8 4 8 8 0 4.8 7.2 16 15.2 25.6 8.8 8.8 13.6 20.8 11.2 27.2s0 11.2 4.8 11.2c4.8 0 8.8 4 8.8 8.8 0 17.6-24 31.2-55.2 31.2-17.6 0-34.4 4-36.8 8-2.4 4.8-20.8 8-40.8 8s-34.4 3.2-32 7.2c2.4 4-29.6 9.6-71.2 12.8s-76 7.2-76 9.6c0 2.4 6.4 10.4 15.2 17.6 8 7.2 16 20 17.6 28.8 3.2 15.2 11.2 16 181.6 18.4 178.4 1.6 178.4 1.6 198.4 21.6 11.2 11.2 17.6 24 15.2 28-2.4 4.8-0.8 8 3.2 8 4.8 0 8.8 7.2 8.8 16s4 16 8 16c4.8 0 8 4 8 8.8 0 5.6 8 16 16.8 24 9.6 8.8 15.2 20 12 27.2-2.4 6.4-0.8 12 3.2 12 4.8 0 8 5.6 8 12s7.2 12 16.8 12c8.8 0 13.6 4 11.2 8-2.4 4.8 2.4 8 11.2 8 9.6 0 16.8 4 16.8 8 0 5.6 4 4.8 10.4-0.8 4.8-4.8 9.6-21.6 9.6-36z" />
<glyph unicode="&#xe90d;" glyph-name="confirm" d="M856.971 792.415c14.321 0 28.774-4.871 40.653-14.848 26.668-22.338 30.325-61.893 8.192-88.327l-446.171-532.231c-12.186-14.526-47.294-53.424-47.294-53.424s-30.032 29.725-46.68 48.406l-242.878 230.488c-24.912 23.845-25.644 63.547-1.609 88.708 12.464 13.049 29.125 19.632 45.758 19.632 15.477 0 30.91-5.691 42.92-17.174l195.452-185.212 403.909 481.792c12.259 14.643 29.901 22.192 47.748 22.192zM856.971 850.929c-35.884 0-69.647-15.726-92.613-43.125l-363.93-434.132-150.323 142.438c-22.309 21.358-51.917 33.221-83.149 33.221-33.075 0-65.185-13.736-88.079-37.727-46.256-48.45-44.69-125.338 3.452-171.403l241.328-229.040c17.847-19.763 46.27-47.923 47.499-49.152 10.971-10.854 25.776-16.925 41.165-16.925 0.541 0 1.083 0.015 1.638 0.029 15.989 0.439 31.086 7.417 41.779 19.266 1.477 1.624 35.986 39.877 48.699 55.047l446.186 532.246c20.816 24.839 30.632 56.335 27.633 88.678-2.97 32.154-18.271 61.308-43.081 82.096-21.87 18.359-49.664 28.482-78.204 28.482v0zM797.125 656.267c-3.291 0-6.583 1.097-9.318 3.365-6.232 5.164-7.080 14.365-1.931 20.582l30.179 36.396c5.149 6.217 14.365 7.095 20.582 1.931 6.232-5.164 7.080-14.365 1.931-20.582l-30.164-36.381c-2.896-3.511-7.066-5.31-11.279-5.31zM618.672 449.595c-3.452 0-6.934 1.214-9.713 3.701-6.042 5.354-6.583 14.614-1.214 20.641l143.857 161.836c5.354 6.056 14.614 6.597 20.641 1.214 6.042-5.354 6.583-14.614 1.214-20.641l-143.857-161.836c-2.882-3.248-6.905-4.915-10.928-4.915z" />
<glyph unicode="&#xe90e;" glyph-name="lightbulbnew" d="M444.119 941.234c-85.024-14.827-162.867-61.857-212.909-128.116-17.839-23.862-39.385-68.112-47.262-97.535-8.34-31.276-10.425-88.731-4.402-124.409 11.584-70.197 36.373-126.031 109.119-246.501 31.044-51.663 47.725-83.403 55.602-106.338l6.487-18.534 1.39-81.086c1.39-92.438 0.232-86.878 22.936-110.74 33.361-35.214 94.291-64.174 134.603-64.174s101.242 28.959 134.603 64.174c22.704 23.862 21.546 18.302 23.167 110.74 1.158 80.854 1.158 81.086 7.645 99.62 7.877 22.936 24.557 54.675 55.602 106.338 60.235 99.852 81.549 142.943 98.23 199.703 11.815 39.616 15.059 65.332 13.9 109.35-1.39 48.188-7.182 72.051-27.338 113.057-37.068 75.989-104.253 132.981-190.668 161.94-52.127 17.376-124.409 22.472-180.706 12.51zM541.886 846.943c11.815-1.622 12.742-2.085 15.522-9.73 3.475-9.962 3.938-23.167 0.927-31.044-2.085-5.792-3.243-6.024-18.997-6.255-88.963-0.927-148.040-33.129-180.706-98.23-4.865-9.73-13.9-41.933-19.229-68.807-1.622-8.34-7.182-13.437-14.827-13.437-9.962 0-30.349 6.719-31.971 10.657-2.085 5.792 3.938 40.775 11.12 62.32 29.886 89.89 94.060 143.87 182.791 153.832 21.314 2.317 38.921 2.548 55.37 0.695zM630.154 186.208v-18.534h-240.941v37.068h240.941v-18.534zM630.154 130.606v-18.534h-240.941v37.068h240.941v-18.534zM630.154 82.881c0-6.95-1.853-13.669-4.865-18.534l-4.865-7.877h-221.481l-4.865 7.877c-3.012 4.865-4.865 11.584-4.865 18.534v10.657h240.941v-10.657zM590.769 33.071c-16.217-12.742-64.637-32.203-81.086-32.203-11.815 0-34.056 7.182-57.224 18.766-38.921 19.229-41.47 18.302 57.455 18.302h86.646l-5.792-4.865z" />
<glyph unicode="&#xe90f;" glyph-name="forbid" d="M400 948.8c-70.4-16.8-176-65.6-200-92.8-2.4-2.4-16-14.4-30.4-26.4-64-52-120.8-139.2-152.8-236-21.6-63.2-23.2-216-4-282.4 40-133.6 145.6-265.6 255.2-317.6 101.6-48.8 138.4-57.6 244-57.6 106.4 0 149.6 10.4 247.2 59.2 66.4 34.4 164.8 130.4 200 196.8 48.8 92 64.8 152.8 64.8 252s-9.6 142.4-51.2 227.2c-61.6 127.2-152 206.4-300 262.4-64 24.8-201.6 32-272.8 15.2zM650.4 772l55.2-22.4-246.4-246.4c-274.4-275.2-249.6-259.2-283.2-175.2-22.4 56.8-28.8 131.2-16 184.8 41.6 177.6 187.2 291.2 364 284 56-1.6 84-7.2 126.4-24.8zM851.2 552c29.6-92 21.6-174.4-23.2-264-48-94.4-130.4-159.2-241.6-188-74.4-19.2-136.8-12-228 27.2l-37.6 16 491.2 488 13.6-21.6c8-12 19.2-37.6 25.6-57.6z" />
<glyph unicode="&#xe910;" glyph-name="appraiser" d="M404 944.8c-59.2-27.2-114.4-77.6-141.6-131.2-24.8-46.4-26.4-55.2-26.4-129.6 0-66.4 3.2-87.2 18.4-120.8 20.8-46.4 76.8-104.8 129.6-134.4l36-20.8h-24.8c-81.6 0-215.2-101.6-290.4-219.2-22.4-36-24.8-46.4-24.8-100.8 0-69.6 15.2-100.8 63.2-133.6 27.2-18.4 30.4-18.4 281.6-18.4 272.8 0 276.8 0.8 236.8 38.4-16.8 16-26.4 16.8-239.2 19.2-210.4 2.4-222.4 3.2-244 19.2-12.8 9.6-26.4 30.4-32 49.6-8.8 31.2-7.2 36.8 15.2 83.2 36.8 73.6 116 148.8 187.2 176 87.2 34.4 126.4 40.8 196.8 36 60-4.8 64.8-4 79.2 12.8 18.4 21.6 19.2 34.4 2.4 40.8-10.4 4-4.8 10.4 23.2 29.6 77.6 51.2 119.2 113.6 133.6 201.6 8 51.2-5.6 129.6-31.2 180-19.2 38.4-88 99.2-137.6 120.8-48 22.4-164.8 23.2-211.2 1.6zM581.6 879.2c110.4-40.8 169.6-173.6 123.2-276-76.8-168.8-304-175.2-389.6-10.4-22.4 44-24 116.8-4 164 32.8 76.8 119.2 137.6 194.4 139.2 16.8 0 50.4-8 76-16.8zM660.8 298.4l-141.6-141.6 2.4-68.8 2.4-68 136-4.8 94.4 92.8c51.2 50.4 93.6 95.2 93.6 98.4-0.8 12-22.4 33.6-33.6 33.6-6.4 0-43.2-31.2-81.6-69.6l-68.8-70.4-29.6 29.6-28.8 29.6 77.6 78.4 78.4 77.6 44-45.6c24-24.8 48-45.6 54.4-45.6 14.4 0 84 72 84 87.2 0 16.8-112 128.8-128.8 128.8-7.2 0-76.8-64-154.4-141.6z" />
<glyph unicode="&#xe911;" glyph-name="auditor" d="M394.4 936c-61.6-28-116.8-83.2-144.8-142.4-18.4-38.4-21.6-56.8-21.6-113.6 0-59.2 3.2-74.4 23.2-115.2 27.2-56 75.2-106.4 122.4-129.6l32.8-16.8-48.8-14.4c-98.4-29.6-211.2-126.4-261.6-225.6-29.6-57.6-28-125.6 4.8-172 12.8-18.4 38.4-42.4 55.2-52 31.2-17.6 38.4-18.4 278.4-18.4 271.2 0 271.2 0 217.6 47.2l-28.8 24.8h-215.2c-211.2 0-215.2 0-236 18.4-51.2 44-26.4 138.4 59.2 221.6 81.6 79.2 186.4 117.6 302.4 109.6 64-4.8 66.4-4 82.4 16 20 25.6 20 34.4-0.8 40-13.6 4-10.4 8 22.4 26.4 50.4 28.8 95.2 78.4 120 134.4 28.8 61.6 28.8 149.6 0 212-28.8 64-79.2 115.2-144.8 146.4-74.4 36.8-144.8 37.6-218.4 3.2zM584 871.2c51.2-23.2 93.6-67.2 112-116.8 20-54.4 20-94.4 0-148.8-60.8-161.6-286.4-180.8-373.6-31.2-20 32.8-22.4 45.6-22.4 105.6s2.4 72.8 22.4 105.6c52.8 90.4 168 128 261.6 85.6zM664.8 376.8c-48.8-26.4-63.2-84.8-32.8-135.2 22.4-36.8 20.8-41.6-20-41.6-51.2 0-60-16.8-57.6-108l1.6-72h312l2.4 75.2c2.4 90.4-5.6 104.8-60 104.8-18.4 0-34.4 2.4-34.4 6.4 0 3.2 7.2 17.6 16 32 19.2 31.2 20.8 86.4 4 110.4-13.6 20.8-59.2 43.2-85.6 43.2-9.6-0.8-30.4-7.2-45.6-15.2zM750.4 326.4c13.6-13.6 12-34.4-6.4-70.4-31.2-61.6-16-100 44-106.4 17.6-1.6-16.8-3.2-76-3.2-59.2 0.8-90.4 1.6-69.6 3.2 34.4 3.2 40 6.4 51.2 30.4 12 25.6 12 28-8.8 67.2-24 47.2-25.6 59.2-8 76 14.4 15.2 60 16.8 73.6 3.2z" />
<glyph unicode="&#xe912;" glyph-name="remove" horiz-adv-x="1128" d="M800 929.6c0-30.4-1.6-33.6-20-33.6-11.2 0-20-3.2-20-8 0-4 8.8-8 20-8 19.2 0 20-2.4 20-43.2v-42.4l-49.6-5.6c-28-3.2-82.4-16.8-122.4-29.6-229.6-76.8-369.6-264.8-384.8-519.2-4.8-77.6 4.8-73.6 20 8 24.8 130.4 118.4 254.4 236 312 80 39.2 140 55.2 231.2 61.6l69.6 4.8v-131.2l150.4 113.6c82.4 62.4 152.8 116 156 119.2 4 3.2-56 49.6-132 104s-146.4 105.6-156 114.4l-18.4 16v-32.8zM67.2 860.8l-27.2-27.2v-811.2l54.4-54.4h912l49.6 41.6v498.4l-44-2.4-44-3.2v-438.4h-832v728h368v96h-409.6l-27.2-27.2z" />
<glyph unicode="&#xe913;" glyph-name="verification" d="M478.4 954.4c-12.8-1.6-22.4-7.2-22.4-12 0-4-5.6-5.6-12-3.2-7.2 2.4-20 0.8-28-3.2-8.8-4.8-23.2-11.2-32-16-8-4-29.6-10.4-47.2-12.8-18.4-3.2-30.4-8-28-12s-4.8-7.2-16-7.2c-11.2 0-21.6-3.2-24.8-7.2-2.4-4.8-20.8-10.4-40-13.6-20-2.4-36-8-36-12s-8.8-7.2-20-7.2c-11.2 0-20-3.2-20-8 0-4-5.6-8-12-8s-20.8-9.6-32-20.8l-20.8-20.8 2.4-224.8c1.6-170.4 4.8-224.8 12.8-228 4.8-1.6 9.6-9.6 9.6-17.6s3.2-16.8 7.2-19.2c4-2.4 9.6-14.4 12.8-26.4 2.4-12 8-24 10.4-26.4 3.2-2.4 12.8-16.8 20.8-32 8.8-15.2 20-32.8 24-38.4 21.6-25.6 103.2-105.6 108-105.6 4 0 16.8-8.8 29.6-20s29.6-22.4 37.6-24.8c7.2-2.4 13.6-8 13.6-12s4-7.2 8-7.2c4.8 0 18.4-8.8 30.4-20s25.6-20 31.2-20c5.6 0 12.8-5.6 16.8-13.6 5.6-8.8 21.6-14.4 52-16.8 36-2.4 50.4 0 76.8 15.2 18.4 9.6 32.8 20.8 32.8 24.8 0 3.2 4 6.4 8.8 6.4s13.6 4.8 19.2 10.4c26.4 23.2 36 29.6 43.2 29.6 4 0 8.8 5.6 12 12 2.4 6.4 9.6 12 16.8 12 6.4 0 19.2 6.4 27.2 13.6 8.8 8 25.6 21.6 36.8 30.4 27.2 20.8 36 28.8 60 60 11.2 13.6 26.4 32.8 34.4 41.6 7.2 9.6 13.6 21.6 13.6 28 0 5.6 4 10.4 8 10.4 4.8 0 8 5.6 8 12s3.2 12 7.2 12c4 0 9.6 12.8 12 28 3.2 15.2 8.8 28 12.8 28 4.8 0 8 8.8 8 19.2s4.8 20.8 9.6 22.4c8 3.2 11.2 55.2 12.8 215.2l3.2 211.2-21.6 25.6c-12.8 15.2-35.2 28.8-56.8 35.2-19.2 5.6-35.2 12.8-35.2 16s-16 8-36 10.4c-20 3.2-36 8.8-36 13.6 0 4-8.8 7.2-20 7.2s-20 3.2-20 7.2c0 4-17.6 9.6-40 12.8-21.6 3.2-40 8.8-40 12.8s-6.4 7.2-14.4 7.2c-8 0-17.6 3.2-22.4 7.2-20 18.4-99.2 28-156.8 19.2zM568 840.8c0-4 15.2-8.8 33.6-12s37.6-8.8 42.4-12c4-4 19.2-9.6 32-12.8 13.6-4 25.6-7.2 28-8 18.4-6.4 38.4-14.4 48.8-20 7.2-4 25.6-8.8 40-12 15.2-2.4 36-12 47.2-20 19.2-14.4 20-19.2 22.4-120 3.2-108-9.6-264-21.6-272-3.2-2.4-8.8-12.8-11.2-24s-12-28-20-36.8c-8.8-8.8-18.4-24-20.8-33.6-3.2-8.8-12.8-19.2-20.8-21.6s-17.6-12-20-20c-2.4-8-12-17.6-20.8-20-8-3.2-15.2-8.8-15.2-12.8s-5.6-7.2-12-7.2c-6.4 0-12-3.2-12-7.2 0-4.8-14.4-16-32-25.6-17.6-10.4-32-20.8-32-24.8 0-3.2-4-6.4-8.8-6.4s-13.6-4.8-19.2-10.4c-32.8-28.8-76-50.4-76-37.6 0 4.8-4 8-8.8 8-8.8 0-65.6 40-69.6 50.4-1.6 3.2-7.2 5.6-12.8 5.6s-20.8 8.8-33.6 20c-12.8 11.2-25.6 20-28.8 20-4.8 0-78.4 72.8-100 99.2-5.6 6.4-10.4 16-10.4 20.8 0 4-3.2 8-7.2 8s-9.6 10.4-12.8 24c-3.2 12.8-8.8 24-12.8 24s-7.2 8-7.2 18.4c0 10.4-4 22.4-8.8 27.2-14.4 14.4-20.8 309.6-7.2 335.2 5.6 10.4 15.2 19.2 21.6 19.2 5.6 0 10.4 3.2 10.4 7.2s13.6 8.8 30.4 12c16.8 2.4 42.4 10.4 56.8 17.6 13.6 7.2 30.4 13.6 36.8 14.4s14.4 4 16.8 7.2c3.2 3.2 14.4 5.6 24.8 5.6 9.6 0 18.4 3.2 18.4 7.2s16 9.6 36 12c19.2 3.2 37.6 8.8 40 13.6 6.4 8.8 76 9.6 76 0zM584 512.8l-99.2-102.4-55.2 55.2c-61.6 60.8-90.4 69.6-118.4 36.8-26.4-32-19.2-55.2 32.8-108.8 26.4-27.2 48-47.2 48-44.8 0 3.2 7.2-2.4 16-12.8s16-21.6 16-25.6c0-4 4-4.8 8-2.4 4.8 2.4 8 2.4 8-1.6 0-3.2 9.6-12.8 20-20.8 17.6-12.8 21.6-12.8 43.2-2.4 18.4 9.6 217.6 203.2 255.2 248 26.4 32.8-4 85.6-48.8 84-21.6 0-40-14.4-125.6-102.4z" />
<glyph unicode="&#xe914;" glyph-name="reject" d="M368 944.8c-91.2-25.6-152-61.6-220.8-128.8-103.2-101.6-147.2-212-147.2-368 0-156.8 44.8-268 150.4-371.2 100-98.4 209.6-140.8 360-140.8 92.8 0 216.8 25.6 233.6 48.8 2.4 2.4 18.4 12.8 36 21.6 72 36.8 165.6 134.4 183.2 192 3.2 9.6 8.8 17.6 12.8 17.6s16 26.4 25.6 58.4c16 48.8 18.4 75.2 18.4 173.6s-2.4 124.8-18.4 174.4c-9.6 31.2-21.6 57.6-25.6 57.6s-9.6 8-12.8 18.4c-17.6 56.8-111.2 154.4-183.2 191.2-17.6 8.8-33.6 19.2-36 21.6-5.6 8-45.6 22.4-100.8 36.8-68.8 16.8-208 15.2-275.2-3.2zM470.4 689.6l2.4-81.6h39.2c22.4 0 40-3.2 40-8 0-4 8-8 18.4-8.8 44-0.8 152-67.2 173.6-107.2 5.6-11.2 13.6-20 16.8-20 7.2 0 35.2-54.4 42.4-84 3.2-12.8 10.4-26.4 15.2-29.6 15.2-9.6 12.8-180.8-2.4-190.4-9.6-5.6-14.4-0.8-22.4 22.4-5.6 16-15.2 32-21.6 36-6.4 3.2-12 11.2-12 16 0 12.8-60.8 69.6-94.4 89.6-14.4 8.8-25.6 17.6-25.6 20.8 0 6.4-80 28.8-129.6 36l-38.4 4.8v-80.8c0-125.6 2.4-126.4-168 62.4-37.6 41.6-77.6 85.6-89.6 97.6-28.8 28-28 36.8 4 67.2 13.6 13.6 47.2 48.8 73.6 78.4 117.6 132 151.2 166.4 163.2 164 10.4-2.4 13.6-17.6 15.2-84.8z" />
<glyph unicode="&#xe915;" glyph-name="createProject" d="M152 954.4c-26.4-9.6-56.8-48-68-85.6-9.6-32.8-12-108.8-12-429.6 0-430.4 0.8-438.4 50.4-480.8l25.6-21.6 384.8-0.8c383.2 0 384.8 0 407.2 17.6 12 9.6 28.8 32 36.8 49.6 13.6 30.4 15.2 58.4 15.2 348.8 0 287.2-1.6 317.6-14.4 336-7.2 11.2-70.4 76.8-140 146.4l-126.4 125.6-273.6-0.8c-150.4 0-279.2-2.4-285.6-4.8zM617.6 756.8c3.2-164.8-4.8-156.8 152-156.8h118.4v-565.6l-31.2-9.6c-22.4-6.4-124-8.8-336.8-8.8-264 0.8-308 2.4-324.8 13.6l-19.2 12v401.6c0 220 3.2 404.8 6.4 408.8 17.6 24 41.6 27.2 235.2 27.2l197.6 0.8 2.4-123.2zM492.8 612c-9.6-14.4-12.8-40-12.8-104v-84h-92c-82.4 0-92-1.6-100-15.2-12-24-9.6-52.8 6.4-67.2 12-11.2 32-13.6 100-13.6h85.6v-86.4c0-96 8-113.6 51.2-113.6 48.8 0 52.8 8 52.8 108v92h183.2l12.8 24c10.4 20.8 11.2 28 2.4 46.4-10.4 21.6-11.2 21.6-104.8 24l-93.6 2.4v90.4c0 77.6-2.4 92-14.4 103.2-22.4 20.8-61.6 17.6-76.8-6.4z" />
<glyph unicode="&#xe916;" glyph-name="deletefile" d="M108 952.8c-17.6-8-61.6-52.8-75.2-79.2-6.4-11.2-8.8-131.2-8.8-397.6v-380l33.6-36.8c55.2-59.2 52.8-59.2 274.4-59.2 108 0 196 1.6 196 4s-7.2 14.4-16.8 27.2c-20 27.2-30.4 71.2-31.2 127.2v41.6h-141.6c-78.4 0-146.4 3.2-152 6.4-26.4 16.8-26.4 67.2-0.8 97.6 13.6 15.2 23.2 16 178.4 16 161.6 0 163.2 0 172.8 18.4 22.4 43.2 107.2 92.8 172 99.2 24 2.4 43.2 8 43.2 11.2 0 4 7.2 7.2 16 7.2s16-3.2 16-8c0-4 4-8 8-8 4.8 0 8 50.4 8 135.2v135.2l-100.8 3.2c-96.8 2.4-101.6 3.2-116 22.4-8 11.2-20 25.6-24.8 32-6.4 7.2-11.2 44.8-12.8 101.6l-3.2 90.4-208.8-0.8c-115.2 0-216.8-3.2-225.6-6.4zM643.2 552.8c9.6-10.4 12.8-25.6 11.2-45.6-4-48.8-14.4-51.2-236-51.2-188 0-230.4 4.8-244 26.4-10.4 16-7.2 48.8 6.4 68 12 17.6 13.6 17.6 230.4 17.6 204.8 0 219.2-0.8 232-15.2zM601.6 876c4-107.2 4-107.2 116.8-108 80 0 81.6 0.8 81.6 18.4 0 22.4-15.2 44.8-57.6 83.2-17.6 16.8-40 37.6-49.6 46.4-29.6 27.2-59.2 44-77.6 44-16.8 0-16.8-2.4-13.6-84zM681.6 373.6c-24.8-7.2-84-59.2-114.4-98.4-18.4-24-30.4-84.8-27.2-136 3.2-48 35.2-109.6 76.8-148.8 81.6-76 225.6-72 306.4 7.2 18.4 17.6 39.2 46.4 48 63.2 8 17.6 17.6 37.6 21.6 44.8 4 8 7.2 32.8 7.2 54.4 0 79.2-73.6 187.2-144.8 212-37.6 13.6-133.6 14.4-173.6 1.6zM727.2 236.8c15.2-16 32.8-28.8 38.4-28.8s26.4 16 46.4 35.2c25.6 24 41.6 33.6 52.8 31.2 24.8-6.4 17.6-31.2-20.8-71.2-35.2-36-41.6-47.2-29.6-52.8 3.2-0.8 20.8-20 40-40.8 28-31.2 32.8-40.8 25.6-50.4-16.8-19.2-36.8-12.8-75.2 24.8-20.8 20-39.2 36-40.8 36s-20-16-40.8-36.8c-24.8-24-43.2-35.2-54.4-33.6-29.6 4-24 28 18.4 70.4l40 40-39.2 40c-42.4 41.6-48.8 58.4-26.4 71.2 17.6 9.6 30.4 2.4 65.6-34.4z" />
<glyph unicode="&#xe917;" glyph-name="deletefolder" d="M90.4 813.6c-56.8-30.4-58.4-39.2-58.4-320.8 0-266.4 0-268 45.6-310.4 36-33.6 71.2-38.4 274.4-38.4h188v93.6c0 76 3.2 100 14.4 120.8 34.4 62.4 89.6 116 139.2 133.6 20.8 7.2 44.8 16.8 52 20.8 20 10.4 113.6 8.8 124-1.6 5.6-5.6 15.2-7.2 21.6-4.8 16 6.4 17.6 64 3.2 83.2-32 40-57.6 57.6-88.8 62.4-18.4 2.4-143.2 4-276.8 2.4l-244-2.4-9.6-40c-5.6-21.6-14.4-47.2-18.4-56-4.8-8.8-13.6-39.2-20.8-68-13.6-57.6-29.6-76-53.6-63.2-8 4.8-16.8 12.8-19.2 19.2-4.8 11.2 20 109.6 28.8 116 3.2 2.4 10.4 24 16 48 11.2 48 21.6 72.8 35.2 81.6 4.8 3.2 128.8 6.4 276 6.4h267.2l-4.8 31.2c-4.8 38.4-36.8 75.2-78.4 92-26.4 11.2-74.4 12.8-305.6 12-265.6 0-274.4-0.8-307.2-17.6zM748.8 458.4c-8.8-2.4-20.8-8.8-27.2-15.2-5.6-6.4-15.2-11.2-20.8-11.2-17.6 0-70.4-58.4-87.2-96-23.2-49.6-22.4-134.4 0-184.8 44-97.6 166.4-150.4 267.2-115.2 19.2 7.2 36.8 15.2 39.2 18.4 2.4 4 17.6 16.8 33.6 28.8 68 51.2 92 172.8 50.4 256.8-24 49.6-30.4 57.6-80 91.2-35.2 24.8-46.4 28-100 29.6-32.8 1.6-67.2 0-75.2-2.4zM765.6 324c19.2-20 38.4-36 42.4-36s18.4 12.8 33.6 28.8c32 34.4 49.6 44.8 65.6 38.4 21.6-8 14.4-26.4-23.2-64.8-20-19.2-36-38.4-36-41.6s16-21.6 36-41.6c19.2-19.2 36-41.6 36-48.8 0-25.6-36-16.8-72 17.6-18.4 17.6-36.8 32-40.8 32-3.2 0-22.4-15.2-41.6-33.6-23.2-23.2-40.8-33.6-52-32-28 4-20.8 26.4 21.6 68l39.2 37.6-39.2 40.8c-40 40.8-47.2 58.4-28.8 65.6 18.4 8 23.2 5.6 59.2-30.4z" />
<glyph unicode="&#xe918;" glyph-name="newdirectory" d="M48 460v-460h656v96h-513.6l-23.2 24-24 23.2 2.4 320.8 2.4 321.6 44.8 38.4h630.4l44.8-38.4 4-259.2 4-258.4 92-4.8v656.8h-920v-460zM312 712v-48h496v96h-496v-48zM208 540v-52h96v104h-96v-52zM313.6 542.4l2.4-50.4 246.4-2.4 245.6-1.6v104h-496.8l2.4-49.6zM208 380v-52h96v104h-96v-52zM317.6 426.4c-3.2-2.4-5.6-26.4-5.6-52v-46.4h496v104h-242.4c-133.6 0-245.6-2.4-248-5.6zM760 264v-56h-112v-104h112v-104h104v104h104v104h-104v112h-104v-56z" />
<glyph unicode="&#xe919;" glyph-name="newfolder" d="M77.6 889.6l-22.4-23.2 2.4-396c2.4-357.6 4-396.8 16-408.8 12-12.8 52-13.6 448.8-13.6 432 0 435.2 0 450.4 16.8 14.4 16 15.2 35.2 17.6 341.6 1.6 223.2-0.8 332-6.4 346.4-15.2 35.2-36 39.2-220 39.2h-171.2l-28 43.2c-52 81.6-35.2 76.8-264.8 76.8h-200.8l-21.6-22.4zM424.8 766.4c10.4-10.4 30.4-35.2 43.2-56 13.6-21.6 28.8-38.4 34.4-38.4 4.8 0 9.6-3.2 9.6-8s60-8 163.2-8c139.2 0 165.6-1.6 176.8-12.8 10.4-11.2 12-41.6 12-232l-0.8-220-20-7.2c-24-9.6-626.4-10.4-640-1.6-24.8 16-27.2 43.2-27.2 297.6v257.6l23.2 23.2c23.2 23.2 24.8 23.2 115.2 23.2 84 0 92.8-1.6 110.4-17.6zM485.6 603.2c-3.2-3.2-5.6-36-5.6-72v-66.4l-140-4.8-2.4-29.6c-4.8-54.4 6.4-62.4 78.4-62.4h64v-128h80v128h63.2c73.6 0 83.2 6.4 79.2 57.6l-2.4 34.4-139.2 4.8-4.8 139.2-32 2.4c-18.4 1.6-35.2 0-38.4-3.2z" />
<glyph unicode="&#xe91a;" glyph-name="clearAll" d="M394.4 906.4c-12.8-19.2-14.4-45.6-16.8-212l-2.4-190.4h-130.4c-122.4 0-131.2-0.8-145.6-16.8s-15.2-32-15.2-259.2c0-227.2 0.8-243.2 15.2-259.2 15.2-16.8 18.4-16.8 424-16.8 390.4 0 409.6 0.8 428.8 16l20 15.2 2.4 222.4c1.6 122.4 0 234.4-2.4 248-8 43.2-32.8 50.4-172 50.4h-120v174.4c0 95.2-3.2 185.6-8 200.8-12.8 44.8-24 48-149.6 48.8h-114.4l-13.6-21.6zM566.4 642.4l1.6-210.4 146.4-1.6 145.6-2.4 2.4-33.6 2.4-34.4h-681.6l2.4 34.4 2.4 33.6 146.4 2.4 145.6 1.6v207.2c0 113.6 2.4 208.8 5.6 212s22.4 4.8 42.4 3.2l36-2.4 2.4-209.6zM864 126.4c0-40.8-4-80-8-86.4-5.6-8-8 6.4-8 48.8v61.6l-24 4.8c-13.6 2.4-35.2 2.4-48 0l-24-4.8v-63.2c0-57.6-1.6-63.2-16-63.2s-16 5.6-16 63.2v63.2l-24 4.8c-12.8 2.4-34.4 2.4-48 0l-24-4.8v-127.2l-212 2.4c-178.4 2.4-213.6 4-220 14.4-4 6.4-8 45.6-8 86.4v73.6h680v-73.6z" />
<glyph unicode="&#xe91b;" glyph-name="undo" d="M254.687 755.2c-83.145-83.145-150.537-155.788-148.786-161.039 7.002-19.255 289.696-308.075 301.949-308.075 9.627 0 12.253 18.379 12.253 92.773v93.648l61.265-6.126c169.791-15.754 262.564-105.901 262.564-255.562 0-75.268-28.882-140.034-89.272-199.549-47.262-45.511-49.887-50.762-28.007-45.511 117.279 28.882 235.432 179.419 258.188 326.455 11.378 77.019-1.75 175.918-31.508 245.060-25.381 56.889-91.897 125.156-153.162 155.788-55.138 28.007-164.54 56.889-215.303 56.889-63.015 0-64.766 1.75-64.766 84.021 0 40.26-2.626 73.518-7.002 73.518-3.501 0-74.393-68.267-158.414-152.287z" />
<glyph unicode="&#xe91c;" glyph-name="maintenanceTips" d="M634.4 916.8c-52-28-80.8-56-104-100.8-8-15.2-16.8-29.6-19.2-32-11.2-10.4-24.8-83.2-21.6-116 4-35.2 3.2-37.6-55.2-104-32.8-37.6-62.4-68-66.4-68-3.2 0-77.6-71.2-164-157.6-151.2-150.4-157.6-159.2-166.4-199.2-25.6-124 96.8-216 211.2-158.4 11.2 5.6 116.8 106.4 234.4 224l213.6 214.4 63.2 1.6c50.4 0.8 67.2 4.8 84.8 18.4 12 8.8 25.6 16.8 32 16.8 16.8 0 92.8 69.6 106.4 97.6 6.4 14.4 15.2 28.8 19.2 31.2 3.2 2.4 5.6 28.8 4 59.2-4 87.2-14.4 86.4-109.6-4-7.2-6.4-20-12-28.8-12-18.4 0-37.6-11.2-32.8-19.2 2.4-3.2-8-6.4-23.2-7.2-34.4-2.4-98.4 34.4-118.4 68.8-18.4 32-20.8 84-4.8 103.2 6.4 8 12 20 11.2 26.4s14.4 28 33.6 46.4c19.2 19.2 34.4 38.4 34.4 42.4s4 7.2 8 7.2c4.8 0 8 5.6 8 12.8 0 44-76 48-149.6 8zM44 874.4c-15.2-16.8-28-36.8-28-44.8 0-33.6 97.6-149.6 126.4-149.6 6.4 0 49.6-38.4 95.2-85.6 72-72.8 86.4-84 98.4-76.8 10.4 7.2 16.8 6.4 25.6-2.4 9.6-9.6 14.4-8 34.4 14.4l24 26.4-24.8-22.4c-21.6-19.2-26.4-20.8-34.4-10.4-8.8 10.4-6.4 16 10.4 32.8 11.2 11.2 20.8 25.6 20.8 32s-20 30.4-44.8 53.6c-103.2 96.8-121.6 117.6-131.2 146.4-7.2 21.6-20 35.2-48.8 53.6-21.6 12.8-39.2 27.2-39.2 31.2 0 6.4-40.8 31.2-52 31.2-2.4 0-17.6-13.6-32-29.6zM660.8 348.8c2.4-5.6-15.2-28-38.4-50.4-54.4-52.8-62.4-62.4-62.4-79.2 0-14.4 217.6-235.2 261.6-265.6 24-16.8 78.4-24 84-11.2 1.6 3.2 16 16.8 32.8 28.8 27.2 20.8 29.6 25.6 29.6 64 0 22.4-3.2 45.6-7.2 51.2-3.2 5.6-63.2 68.8-133.6 139.2-95.2 96.8-132.8 129.6-148.8 131.2-13.6 0.8-20-1.6-17.6-8z" />
<glyph unicode="&#xe91d;" glyph-name="technicalInstruction" d="M80.8 900.8c-11.2-6.4-22.4-17.6-25.6-25.6-3.2-8.8-6.4-163.2-6.4-344-0.8-312.8 0-330.4 14.4-348 15.2-19.2 17.6-19.2 184-21.6l168.8-2.4v-110.4l-52.8-2.4c-59.2-2.4-73.6-13.6-64-48.8 7.2-28.8 24.8-31.2 231.2-28 190.4 2.4 192 3.2 188 50.4-2.4 24-2.4 24-56 26.4l-54.4 2.4v111.2h152c159.2 0 191.2 5.6 203.2 36 7.2 18.4 5.6 678.4-1.6 688.8-16.8 25.6-41.6 27.2-451.2 27.2-330.4-0.8-414.4-2.4-429.6-11.2zM880 536v-288h-740l2.4 284 1.6 284 366.4 2.4c200.8 0.8 366.4 2.4 368 4 0.8 0.8 1.6-128 1.6-286.4zM274.4 604c-56.8-58.4-56-74.4 1.6-134.4 24.8-24.8 49.6-45.6 55.2-45.6s15.2 11.2 20.8 24c11.2 27.2 7.2 35.2-35.2 71.2l-23.2 20 20.8 16.8c30.4 27.2 47.2 57.6 41.6 76-8.8 28-36.8 18.4-81.6-28zM518.4 621.6c-7.2-13.6-22.4-44.8-33.6-67.2-11.2-23.2-23.2-42.4-27.2-42.4-10.4 0-27.2-54.4-21.6-71.2 10.4-32.8 43.2-28.8 60.8 6.4 27.2 55.2 57.6 108.8 64 112.8 9.6 6.4 23.2 46.4 23.2 68.8 0 16-4 19.2-25.6 19.2s-28.8-5.6-40-26.4zM668.8 635.2c-9.6-25.6-4-42.4 24.8-70.4l29.6-28-29.6-28.8c-28.8-28-34.4-45.6-24.8-71.2 7.2-19.2 23.2-15.2 52.8 13.6 44.8 43.2 70.4 79.2 70.4 96.8 0 22.4-79.2 100.8-101.6 100.8-8.8 0-19.2-5.6-21.6-12.8z" />
<glyph unicode="&#xe91e;" glyph-name="flightTop" d="M473.473 881.933c-9.125-32.444-21.291-104.428-26.36-160.19-6.083-55.762-17.236-123.691-26.36-152.079-8.111-27.374-15.208-59.818-15.208-70.97 0-12.166-27.374-42.582-70.97-78.067-38.527-32.444-71.984-58.804-74.012-58.804-3.042 0-7.097 9.125-10.139 20.277s-10.139 20.277-16.222 20.277c-7.097 0-11.152-34.471-11.152-101.386 0-83.137 3.042-101.386 15.208-101.386 8.111 0 15.208 7.097 15.208 15.208 0 12.166 17.236 15.208 91.248 15.208h91.248v-38.527c0-34.471-6.083-44.61-56.776-87.192-48.665-42.582-55.762-52.721-52.721-81.109l3.042-31.43 68.943-3.042c51.707-2.028 67.929-6.083 67.929-17.236s13.18-15.208 50.693-15.208c37.513 0 50.693 4.055 50.693 15.208s16.222 15.208 68.943 17.236l67.929 3.042 3.042 31.43c3.042 28.388-4.055 38.527-52.721 81.109-50.693 42.582-56.776 52.721-56.776 87.192v38.527h91.248c74.012 0 91.248-3.042 91.248-15.208 0-8.111 7.097-15.208 15.208-15.208 12.166 0 15.208 18.25 15.208 101.386 0 66.915-4.055 101.386-11.152 101.386-6.083 0-13.18-9.125-16.222-20.277s-7.097-20.277-10.139-20.277c-2.028 0-35.485 26.36-74.012 58.804-43.596 35.485-70.97 65.901-70.97 78.067 0 11.152-7.097 43.596-15.208 70.97-9.125 28.388-20.277 96.317-26.36 152.079-5.069 55.762-17.236 127.747-26.36 160.19-14.194 52.721-18.25 57.79-43.596 57.79s-29.402-5.069-43.596-57.79z" />
</font>
</defs>
</svg>
